<svg width="24" height="24" viewBox="0 0 24 24" fill="none" xmlns="http://www.w3.org/2000/svg">
<path opacity="0.5" d="M9.5 22C10.4849 22 11.4602 21.806 12.3701 21.4291C13.2801 21.0522 14.1069 20.4997 14.8033 19.8033C15.4997 19.1069 16.0522 18.2801 16.4291 17.3701C16.806 16.4602 17 15.4849 17 14.5C17 13.5151 16.806 12.5398 16.4291 11.6299C16.0522 10.7199 15.4997 9.89314 14.8033 9.1967C14.1069 8.50026 13.2801 7.94781 12.3701 7.5709C11.4602 7.19399 10.4849 7 9.5 7C7.51088 7 5.60322 7.79018 4.1967 9.1967C2.79018 10.6032 2 12.5109 2 14.5C2 16.4891 2.79018 18.3968 4.1967 19.8033C5.60322 21.2098 7.51088 22 9.5 22Z" fill="#222222"/>
<path d="M17.9811 2.35305C18.0222 2.24894 18.0936 2.15959 18.1862 2.09663C18.2788 2.03367 18.3881 2 18.5001 2C18.612 2 18.7213 2.03367 18.8139 2.09663C18.9065 2.15959 18.9779 2.24894 19.0191 2.35305L19.6731 4.01305C19.7301 4.15605 19.8431 4.27005 19.9881 4.32705L21.6471 4.98105C22.1171 5.16705 22.1171 5.83305 21.6471 6.01905L19.9871 6.67305C19.916 6.70133 19.8514 6.74387 19.7974 6.79804C19.7434 6.85222 19.7011 6.91689 19.6731 6.98805L19.0191 8.64705C18.9779 8.75117 18.9065 8.84051 18.8139 8.90348C18.7213 8.96644 18.612 9.00011 18.5001 9.00011C18.3881 9.00011 18.2788 8.96644 18.1862 8.90348C18.0936 8.84051 18.0222 8.75117 17.9811 8.64705L17.3271 6.98705C17.2988 6.91598 17.2562 6.85144 17.2021 6.79744C17.1479 6.74344 17.0832 6.7011 17.0121 6.67305L15.3531 6.01905C15.2489 5.97794 15.1596 5.90646 15.0966 5.8139C15.0337 5.72135 15 5.61199 15 5.50005C15 5.38811 15.0337 5.27876 15.0966 5.1862C15.1596 5.09365 15.2489 5.02217 15.3531 4.98105L17.0131 4.32705C17.0841 4.29878 17.1487 4.25624 17.2027 4.20206C17.2567 4.14789 17.299 4.08322 17.3271 4.01205L17.9811 2.35305Z" fill="#222222"/>
<path d="M12 16.75C12.1989 16.75 12.3897 16.671 12.5303 16.5303C12.671 16.3897 12.75 16.1989 12.75 16C12.75 15.8011 12.671 15.6103 12.5303 15.4697C12.3897 15.329 12.1989 15.25 12 15.25H10C9.80109 15.25 9.61032 15.329 9.46967 15.4697C9.32902 15.6103 9.25 15.8011 9.25 16C9.25 16.1989 9.32902 16.3897 9.46967 16.5303C9.61032 16.671 9.80109 16.75 10 16.75H12ZM14 12.5C14 13.328 13.552 14 13 14C12.448 14 12 13.328 12 12.5C12 11.672 12.448 11 13 11C13.552 11 14 11.672 14 12.5ZM9 14C9.552 14 10 13.328 10 12.5C10 11.672 9.552 11 9 11C8.448 11 8 11.672 8 12.5C8 13.328 8.448 14 9 14Z" fill="#222222"/>
</svg>
